<?xml version="1.0" standalone="no"?>
<!DOCTYPE svg PUBLIC "-//W3C//DTD SVG 20010904//EN"
 "http://www.w3.org/TR/2001/REC-SVG-20010904/DTD/svg10.dtd">
<svg version="1.0" xmlns="http://www.w3.org/2000/svg"
 width="1080.000000pt" height="661.000000pt" viewBox="0 0 1080.000000 661.000000"
 preserveAspectRatio="xMidYMid meet">

<g transform="translate(0.000000,661.000000) scale(0.100000,-0.100000)"
fill="#000000" stroke="none">
<path d="M0 3305 l0 -3305 5400 0 5400 0 0 3305 0 3305 -5400 0 -5400 0 0
-3305z m1186 2377 c140 -44 266 -139 329 -246 33 -57 75 -178 75 -217 l0 -29
-149 0 -149 0 -7 33 c-12 54 -42 103 -88 143 -58 51 -128 76 -214 76 -223 0
-363 -180 -363 -467 0 -205 81 -367 214 -427 73 -33 230 -33 297 -1 65 32 108
79 141 151 l28 63 143 -3 c165 -3 164 -3 127 -108 -34 -96 -69 -150 -146 -227
-86 -86 -186 -138 -302 -159 -319 -56 -595 71 -724 336 -42 86 -54 123 -75
245 -12 72 -6 248 11 333 55 263 229 450 478 513 96 25 283 20 374 -9z m4496
13 c197 -41 334 -164 368 -328 6 -32 9 -65 6 -73 -4 -11 -32 -14 -140 -14
l-135 0 -21 47 c-43 99 -95 127 -230 127 -77 0 -103 -4 -135 -21 -123 -64
-125 -202 -4 -264 22 -10 112 -38 202 -60 271 -69 388 -139 452 -274 72 -152
28 -356 -99 -459 -97 -79 -205 -114 -376 -123 -260 -13 -459 70 -553 229 -31
53 -57 145 -57 200 l0 39 142 -3 142 -3 7 -32 c17 -82 82 -144 179 -169 139
-35 281 7 328 98 41 80 14 146 -78 193 -26 13 -127 45 -223 69 -189 49 -255
75 -332 134 -67 51 -101 103 -121 190 -44 181 47 358 229 446 130 63 300 82
449 51z m-3570 -297 l3 -293 300 0 300 0 3 293 2 292 150 0 150 0 0 -710 0
-710 -150 0 -150 0 0 289 c0 241 -2 290 -14 294 -20 8 -559 9 -580 1 -14 -5
-16 -36 -16 -295 l0 -289 -150 0 -150 0 0 710 0 710 150 0 150 0 2 -292z
m1861 277 c204 -43 331 -175 358 -373 24 -165 -22 -306 -133 -407 -34 -30 -66
-55 -73 -55 -6 0 -16 -5 -23 -12 -12 -12 -12 -13 128 -268 124 -226 150 -275
150 -282 0 -5 -73 -8 -163 -8 l-162 0 -105 198 c-58 108 -117 220 -132 247
l-26 50 -111 3 -111 3 0 -251 0 -250 -150 0 -150 0 0 710 0 710 318 0 c238 0
334 -4 385 -15z m807 -950 l0 -955 308 -2 307 -3 3 -152 3 -153 -271 0 -270 0
0 -735 0 -735 -150 0 -150 0 0 -59 c0 -48 -6 -71 -30 -115 -28 -51 -30 -57
-19 -98 13 -49 6 -98 -15 -98 -20 0 -25 31 -14 90 5 29 6 56 1 59 -15 10 -40
55 -52 92 -9 30 -8 51 7 120 50 220 51 273 5 294 -12 5 -24 20 -26 35 -3 14
-13 50 -22 80 -20 66 -32 335 -15 345 5 3 10 14 10 25 0 10 7 21 16 24 8 3 13
10 10 14 -6 9 21 35 47 45 16 6 17 33 17 312 l0 305 -270 0 -271 0 3 153 3
152 278 3 277 2 0 955 0 955 140 0 140 0 0 -955z m3295 -945 c316 -45 544
-253 615 -558 20 -85 25 -82 -172 -82 -95 0 -178 4 -184 8 -6 4 -18 29 -27 56
-35 104 -88 167 -182 213 -136 68 -317 51 -442 -41 -70 -51 -128 -137 -164
-241 -22 -63 -24 -86 -24 -245 0 -182 14 -274 51 -323 15 -21 16 -19 8 38 -4
33 -8 103 -8 155 -1 95 -1 95 24 95 24 0 25 -3 30 -70 l5 -70 32 -3 c29 -3 32
0 37 30 3 18 7 51 8 73 l3 40 53 3 52 3 0 -153 c0 -84 -6 -184 -12 -223 -6
-38 -12 -88 -12 -110 -1 -38 1 -40 44 -57 64 -24 181 -23 264 2 112 35 199
119 232 225 l17 55 156 2 156 3 3 128 c3 138 2 136 61 120 23 -6 23 -6 19
-134 l-4 -127 51 -4 c101 -6 95 -14 95 132 0 71 4 131 9 134 5 4 16 3 25 0 14
-5 16 -28 16 -149 0 -78 -5 -155 -10 -171 -10 -30 -11 -30 -93 -29 l-82 0 2
-244 c1 -137 6 -247 11 -250 6 -3 11 -14 13 -24 2 -10 8 -19 13 -20 13 -3 27
46 34 123 l7 65 40 0 c38 0 40 -2 43 -33 2 -19 -4 -44 -12 -57 -9 -14 -16 -31
-16 -40 0 -8 -4 -15 -9 -15 -5 0 -13 -15 -16 -32 -4 -18 -12 -39 -18 -46 -14
-17 -14 -111 -1 -120 6 -4 18 -36 28 -72 9 -36 23 -72 30 -80 19 -21 27 -62
15 -76 -6 -7 -28 -10 -59 -7 l-50 4 0 -250 c0 -153 -4 -252 -10 -256 -6 -4
-11 86 -12 251 l-3 257 -55 1 c-55 1 -55 1 -58 34 -2 18 1 39 6 45 6 7 20 41
32 77 13 36 26 69 31 74 16 17 11 103 -6 110 -9 3 -15 18 -15 36 0 17 -4 38
-9 48 -38 72 -44 104 -35 160 10 62 7 192 -4 192 -4 0 -27 -29 -50 -65 -52
-77 -147 -167 -225 -214 -140 -83 -266 -113 -469 -112 l-138 0 0 -113 c0 -73
4 -116 12 -124 9 -9 9 -17 0 -34 -6 -13 -14 -63 -16 -113 -7 -125 -26 -339
-32 -344 -13 -14 -18 30 -22 222 -3 170 -7 214 -19 224 -15 12 -9 78 8 89 5 3
9 36 9 74 0 76 -11 88 -70 75 -30 -6 -30 -8 -30 -72 0 -44 5 -69 15 -79 18
-19 20 -83 3 -89 -9 -4 -13 -31 -14 -83 -1 -142 -7 -287 -12 -299 -16 -46 -26
22 -38 272 -4 79 -9 113 -20 121 -17 14 -18 41 -1 46 9 4 12 43 12 153 l0 149
-70 48 c-128 88 -206 178 -274 314 -125 250 -130 658 -11 920 151 334 494 509
885 454z m-1237 -167 l3 -153 -413 -2 -413 -3 -3 -204 c-2 -157 1 -206 10
-213 7 -4 178 -8 381 -8 l367 0 0 -85 c0 -65 3 -87 14 -91 11 -4 14 -26 14
-87 0 -45 5 -94 11 -109 9 -24 16 -28 51 -28 27 0 43 5 46 15 11 28 21 15 27
-32 5 -46 -8 -93 -25 -93 -5 0 -7 4 -4 9 8 13 -25 19 -81 16 -74 -4 -120 10
-127 41 -7 28 -1 44 17 44 14 0 37 45 37 72 0 17 -20 18 -370 18 l-370 0 2
-207 3 -208 290 -2 c160 -1 345 -2 413 -2 l122 -1 0 -84 c0 -74 2 -85 19 -91
10 -3 24 -18 29 -33 10 -25 13 -38 27 -111 12 -66 16 -168 6 -191 l-10 -25 -7
23 c-3 12 -10 22 -14 22 -5 0 -13 23 -19 52 -7 28 -16 56 -20 62 -5 6 -11 22
-13 36 -2 20 -9 25 -33 25 -24 0 -29 -4 -27 -20 10 -76 14 -136 9 -149 -16
-41 -49 19 -75 134 l-8 35 -545 5 c-299 3 -551 9 -561 13 -9 5 -18 17 -21 28
-3 12 -14 19 -30 19 -39 0 -55 -9 -78 -47 -19 -30 -22 -53 -27 -201 l-5 -168
29 -31 c16 -17 41 -35 56 -38 22 -6 30 -1 49 24 12 17 31 31 41 31 17 0 19 -7
16 -57 l-3 -58 -55 3 c-69 3 -100 -4 -100 -23 0 -9 -9 -15 -23 -15 -32 0 -52
41 -51 104 4 181 5 254 5 355 -2 194 6 210 96 192 31 -6 69 -11 84 -11 16 0
32 -7 37 -17 7 -12 12 8 17 71 8 93 3 222 -10 234 -3 4 -56 6 -116 5 l-109 -3
-16 38 c-22 53 -9 108 26 104 13 -1 27 -6 30 -11 11 -17 174 -30 189 -15 3 3
7 281 9 617 1 337 4 618 7 625 3 10 128 12 597 10 l593 -3 3 -152z m2510 -216
l2 -367 378 2 377 3 3 368 2 367 185 0 185 0 0 -237 c0 -131 3 -532 7 -890 l6
-653 -191 0 -192 0 0 365 0 365 -380 0 -380 0 0 -365 0 -365 -190 0 -190 0 0
890 0 890 188 -2 187 -3 3 -368z m-7662 -550 c11 -11 6 -171 -7 -219 -6 -23
-12 -49 -13 -55 -1 -7 -12 -23 -24 -36 -23 -24 -30 -57 -12 -57 6 0 22 -12 35
-26 24 -26 25 -33 25 -148 -1 -67 -6 -141 -12 -166 -12 -49 -13 -129 -3 -201
4 -26 2 -80 -5 -120 -9 -61 -16 -79 -40 -101 -33 -29 -64 -28 -81 4 -16 31
-17 221 -1 241 27 33 11 154 -30 222 -26 43 -22 77 18 173 8 18 14 42 14 54 0
11 9 36 21 54 l21 34 -30 29 c-16 17 -32 37 -35 46 -4 8 -10 15 -15 15 -5 0
-20 25 -33 55 -13 30 -27 55 -31 55 -5 0 -8 6 -8 14 0 7 -7 19 -15 26 -18 15
-20 83 -2 98 6 5 23 12 37 15 36 8 218 3 226 -6z m1843 -3 c4 -3 8 -46 9 -95
2 -49 8 -89 12 -89 13 0 21 -48 11 -67 -5 -10 -13 -31 -18 -48 -4 -16 -15 -30
-22 -30 -15 0 -17 5 -47 112 -11 38 -29 73 -47 90 -15 16 -37 38 -49 50 -17
19 -28 22 -59 17 -31 -5 -39 -3 -48 14 -24 44 -16 51 67 55 84 4 183 0 191 -9z
m568 6 l32 0 -5 -52 c-3 -29 -10 -75 -14 -103 -5 -27 -12 -125 -16 -216 -5
-135 -3 -179 10 -229 19 -73 20 -149 5 -238 -9 -48 -9 -86 0 -151 16 -112 16
-263 1 -291 -20 -38 -53 -70 -72 -70 -10 0 -40 10 -68 22 -40 18 -55 31 -75
70 -29 54 -30 77 -13 245 9 92 9 130 0 160 -37 123 -10 271 53 287 48 12 68
44 73 112 2 37 -1 64 -7 69 -6 3 -11 28 -11 54 0 41 -5 53 -35 84 -20 21 -38
51 -41 69 -3 18 -10 45 -16 60 -14 38 -2 115 20 122 9 3 46 3 82 1 36 -3 79
-5 97 -5z m-2017 -13 c0 -7 11 -24 25 -39 22 -24 26 -39 30 -115 10 -165 15
-196 38 -227 44 -59 50 -86 42 -218 -6 -100 -4 -132 9 -168 28 -80 13 -251
-34 -382 -32 -90 -27 -199 16 -398 8 -36 14 -100 14 -142 l0 -78 -153 0 c-160
0 -177 4 -177 45 0 11 11 63 24 115 14 52 28 131 31 175 4 44 14 107 22 139
12 49 12 68 2 103 -6 24 -16 43 -20 43 -5 0 -9 9 -9 19 0 11 -4 22 -8 25 -5 3
-15 30 -22 61 -13 55 -10 85 20 205 5 19 9 92 9 162 0 128 12 189 58 278 18
36 16 47 -14 87 -26 34 -28 42 -26 125 1 57 8 100 19 123 9 19 14 41 11 49 -8
21 2 26 50 26 28 0 43 -4 43 -13z m571 8 c3 -2 3 -28 0 -57 -8 -76 -3 -105 20
-111 10 -3 19 -12 19 -21 0 -9 7 -28 16 -41 14 -21 21 -24 54 -19 30 5 38 3
44 -12 11 -28 -24 -84 -51 -84 -13 0 -23 -4 -23 -10 0 -15 -44 -12 -66 5 -10
8 -33 15 -50 15 -27 0 -32 -5 -44 -39 -15 -46 -9 -183 9 -189 6 -2 11 -12 11
-23 0 -10 7 -19 15 -19 8 0 15 -7 15 -15 0 -8 7 -15 15 -15 8 0 15 -5 15 -11
0 -5 4 -8 8 -5 5 3 14 -17 21 -44 16 -62 42 -96 81 -103 19 -4 30 -13 31 -24
1 -21 5 -55 15 -130 8 -60 -7 -105 -45 -141 -22 -20 -26 -21 -47 -7 -33 21
-37 19 -58 -27 -18 -38 -18 -49 -6 -187 15 -178 16 -291 3 -351 -10 -46 -30
-89 -48 -102 -18 -13 -182 -9 -193 5 -28 35 -30 132 -12 572 12 304 13 354 6
455 -2 41 -1 89 4 105 20 68 22 174 5 226 -12 35 -16 73 -13 124 3 66 7 78 33
105 20 21 38 30 61 30 25 0 38 7 55 31 20 28 20 33 7 43 -8 6 -13 17 -11 23 3
7 -7 18 -21 24 -14 7 -23 16 -20 20 5 9 137 13 145 4z m2760 -65 c-1 -36 -7
-70 -12 -76 -5 -6 -13 -28 -18 -50 -7 -29 -9 -32 -10 -14 -1 15 -4 20 -9 13
-7 -12 -4 162 3 185 3 7 15 12 27 10 22 -3 23 -7 19 -68z m-4233 -135 c18 -21
23 -39 24 -99 2 -49 -2 -79 -11 -90 -10 -11 -10 -16 -2 -16 9 0 12 -23 10 -76
-2 -71 -4 -79 -32 -106 -30 -28 -52 -32 -52 -10 0 6 -6 17 -12 24 -7 6 -13 34
-13 60 0 49 16 77 53 91 24 9 21 36 -6 46 -28 11 -41 27 -55 68 -11 34 1 103
18 103 6 0 10 7 10 15 0 24 44 18 68 -10z m9339 -47 c-3 -7 -5 -2 -5 12 0 14
2 19 5 13 2 -7 2 -19 0 -25z m13 -421 c0 -183 -4 -379 -7 -437 -7 -105 -7
-105 -14 -45 -9 68 -10 768 -2 802 3 13 9 20 14 17 5 -3 9 -148 9 -337z
m-9882 296 c-15 -18 -21 -9 -13 18 6 16 9 18 16 8 4 -8 3 -19 -3 -26z m2797
11 c13 -20 16 -40 13 -76 -5 -43 -2 -53 21 -76 38 -39 51 -75 68 -182 31 -195
37 -442 13 -496 -14 -32 -73 -71 -98 -66 -14 3 -28 13 -62 44 -30 27 -39 78
-25 134 7 27 11 75 9 106 -2 31 4 92 13 135 9 43 16 127 17 188 l1 109 -40 8
-41 8 4 72 c4 72 10 84 47 106 30 17 41 15 60 -14z m-384 -13 c15 -16 39 -55
54 -86 23 -51 24 -61 14 -92 -6 -20 -9 -53 -6 -74 5 -40 -14 -141 -35 -191
-12 -27 -55 -58 -81 -58 -19 0 -83 63 -103 102 -13 25 -15 47 -10 107 4 42 7
96 6 119 0 24 3 49 8 55 6 7 13 26 16 44 9 38 64 102 90 102 10 1 31 -12 47
-28z m-2255 -16 c-3 -10 1 -15 14 -15 10 0 32 -11 48 -25 17 -14 35 -25 40
-25 16 0 25 -56 13 -79 -16 -28 -14 -66 4 -81 8 -7 12 -16 9 -21 -3 -5 -1 -9
4 -9 22 0 20 -56 -4 -107 -13 -28 -24 -56 -24 -60 0 -15 25 -63 33 -63 12 0 8
-68 -5 -77 -26 -16 -77 -30 -85 -23 -4 4 -24 10 -44 14 -28 5 -42 2 -64 -16
l-27 -21 -18 24 c-11 13 -20 47 -23 79 -2 30 -14 85 -25 123 -19 62 -20 71 -7
115 19 60 19 101 1 138 -18 35 -10 84 13 85 52 2 91 18 91 37 0 15 2 15 10 2
6 -9 10 -10 10 -3 0 6 8 14 18 16 9 3 19 5 21 6 2 0 1 -6 -3 -14z m4237 -122
c39 -170 22 -923 -21 -923 -41 0 -65 717 -30 900 9 50 24 90 32 90 2 0 10 -30
19 -67z m-4278 -563 c17 0 25 -58 9 -71 -14 -12 -21 -43 -33 -167 -6 -52 -15
-100 -22 -108 -9 -11 -9 -21 -1 -37 20 -42 25 -62 31 -127 l6 -65 40 -10 c43
-10 64 -29 65 -57 0 -11 8 -18 20 -18 34 0 22 -17 -17 -24 -88 -14 -139 -4
-128 27 5 12 -2 18 -29 25 -45 13 -57 25 -90 90 -24 48 -31 89 -26 162 2 18 4
20 7 7 2 -9 9 -15 14 -12 14 9 11 35 -5 35 -14 0 -30 55 -21 70 3 5 7 59 9
120 4 128 15 149 92 170 24 7 44 18 45 24 0 6 5 1 11 -11 6 -13 17 -23 23 -23z
m2270 -26 c19 -30 40 -100 49 -165 4 -26 13 -55 21 -65 17 -23 19 -97 4 -126
-6 -12 -11 -50 -10 -86 1 -36 -3 -70 -7 -76 -5 -6 -14 -32 -21 -57 -15 -55
-49 -73 -106 -58 -31 9 -36 16 -51 65 -10 36 -14 70 -9 97 8 51 8 76 1 237 -6
133 4 200 35 231 36 36 71 37 94 3z m5362 -501 c-1 -81 -3 -17 -3 142 0 160 2
226 3 148 2 -78 2 -208 0 -290z m-1773 337 c22 -8 25 -13 19 -42 -3 -18 -9
-38 -14 -44 -9 -11 -2 -52 12 -70 5 -6 11 -72 13 -146 3 -74 8 -151 11 -171
l7 -37 -39 0 c-31 0 -40 4 -40 18 0 9 5 23 11 31 17 21 12 209 -6 227 -27 27
-88 -22 -88 -71 0 -36 -17 -10 -28 43 -16 75 -15 132 1 136 6 2 27 8 45 12
l34 9 -31 42 c-26 37 -29 46 -20 67 17 37 50 49 70 25 10 -10 29 -23 43 -29z
m-2108 -28 c26 -17 46 -81 41 -131 -7 -64 -11 -71 -50 -71 -43 0 -56 10 -71
55 -28 80 28 182 80 147z m-419 -166 c3 -3 11 -27 18 -53 13 -51 4 -131 -18
-148 -7 -5 -11 -20 -9 -32 2 -16 -2 -23 -13 -23 -11 0 -15 -6 -11 -18 8 -24
-30 -45 -70 -40 -23 2 -30 8 -32 31 -2 15 -14 34 -27 43 -60 39 -45 234 20
248 26 5 135 0 142 -8z m6440 -16 c18 -21 49 -26 72 -11 17 11 61 -14 61 -34
0 -17 -47 -37 -56 -23 -4 7 -28 8 -67 4 -37 -4 -65 -2 -73 5 -9 7 -18 6 -33
-3 -19 -12 -21 -22 -21 -125 0 -69 -4 -113 -10 -113 -12 0 -14 279 -2 298 10
14 42 6 42 -12 0 -6 6 -4 13 5 11 15 32 26 50 28 4 1 15 -8 24 -19z m-7004
-34 c14 -13 29 -36 33 -51 9 -36 -1 -154 -17 -188 -12 -26 -15 -27 -96 -27
-54 0 -82 4 -78 10 3 6 1 10 -4 10 -15 0 -14 20 2 20 40 1 87 91 87 166 0 26
28 84 41 84 3 0 18 -11 32 -24z m2027 -126 c3 -4 19 -10 35 -12 29 -3 30 -5
33 -55 3 -48 1 -53 -17 -53 -12 0 -21 4 -21 9 0 19 -48 61 -69 61 -13 0 -41
-18 -63 -40 -23 -22 -44 -40 -48 -40 -21 0 -16 107 7 143 7 11 135 0 143 -13z
m959 -63 c6 -8 14 -28 17 -46 l7 -32 -39 3 c-36 3 -39 5 -37 32 4 56 26 74 52
43z m-1983 -24 c18 -42 13 -53 -27 -53 -47 0 -67 25 -41 52 22 22 58 23 68 1z
m3129 -33 c-5 -16 -10 -19 -18 -11 -7 7 -6 15 3 26 17 20 24 13 15 -15z
m-6095 11 c0 -13 -34 -23 -54 -15 -9 3 -13 10 -10 15 7 12 64 12 64 0z"/>
<path d="M3570 5234 l0 -219 157 6 c92 3 171 10 188 18 106 44 145 190 83 304
-17 32 -37 49 -81 71 -54 27 -68 29 -202 34 l-145 5 0 -219z"/>
<path d="M4446 2653 c-16 -108 -17 -127 -8 -147 6 -11 14 -30 18 -41 12 -34
25 71 18 153 -6 78 -19 94 -28 35z"/>
<path d="M7600 2524 c0 -57 3 -66 34 -98 56 -60 66 -51 66 59 0 69 -3 95 -12
96 -7 1 -30 2 -50 3 l-38 3 0 -63z"/>
<path d="M8747 1740 c-9 -9 -17 -24 -17 -33 0 -8 -6 -17 -12 -20 -10 -3 -8 -9
5 -24 9 -11 17 -24 17 -30 0 -5 14 -8 30 -5 22 3 30 10 32 26 3 42 -3 67 -20
84 -16 16 -19 17 -35 2z"/>
<path d="M2589 1983 c-12 -31 -1 -58 22 -58 9 0 13 9 11 25 -1 14 -3 33 -3 43
0 26 -18 20 -30 -10z"/>
</g>
</svg>
